<svg xmlns="http://www.w3.org/2000/svg" width="32" height="32" fill="none"><path fill="#777" fill-rule="evenodd" d="M32 16c0 8.837-7.163 16-16 16S0 24.837 0 16 7.163 0 16 0s16 7.163 16 16ZM21.212 8H10.667C9.667 8 8 8.667 8 10.76v10.574C8 22.667 9 24 10.667 24h10.555C23.034 24 24 22.667 24 21.299V10.667c0-1-.738-2.667-2.789-2.667ZM16 20.445a4.445 4.445 0 1 1 .001-8.89 4.445 4.445 0 0 1 0 8.89Zm5.334-8.89a.89.89 0 1 1 0-1.778.89.89 0 0 1 0 1.779Zm-7.22 2.558a2.667 2.667 0 1 1 3.771 3.772 2.667 2.667 0 0 1-3.771-3.772Z" clip-rule="evenodd"/></svg>