<svg xmlns="http://www.w3.org/2000/svg" width="28" height="28" fill="none"><path fill="#fff" fill-rule="evenodd" d="M7.333.667A6.667 6.667 0 0 0 .667 7.333v13.334a6.667 6.667 0 0 0 6.666 6.666h13.334a6.667 6.667 0 0 0 6.666-6.666V7.333A6.667 6.667 0 0 0 20.667.667H7.333ZM24.667 14V7.333a4 4 0 0 0-4-4H7.333a4 4 0 0 0-4 4V18h1.922l1.993-3.239A1.6 1.6 0 0 1 8.61 14h4.536l3.111-6.74c.553-1.198 2.236-1.25 2.861-.089L22.796 14h1.87ZM3.333 20.667h2.518a1.6 1.6 0 0 0 1.363-.762l1.993-3.238h4.622a1.6 1.6 0 0 0 1.453-.93l2.502-5.42 2.966 5.508a1.6 1.6 0 0 0 1.41.842h2.507v4a4 4 0 0 1-4 4H7.333a4 4 0 0 1-4-4Z" clip-rule="evenodd"/></svg>