<svg xmlns="http://www.w3.org/2000/svg" width="22" height="28" fill="none"><path fill="#fff" d="M7 6a1.333 1.333 0 1 0 0 2.667h2.667v8H7a1.333 1.333 0 0 0 0 2.666h8a1.333 1.333 0 1 0 0-2.666h-2.667v-8H15A1.333 1.333 0 1 0 15 6H7Z"/><path fill="#fff" fill-rule="evenodd" d="M11.733.823a2.667 2.667 0 0 0-1.466 0l-8 2.285A2.667 2.667 0 0 0 .333 5.672v8.995c0 3.973 2.026 6.9 4.188 8.877 2.152 1.97 4.532 3.092 5.522 3.51.615.26 1.3.26 1.914 0 .99-.418 3.37-1.54 5.522-3.51 2.162-1.978 4.188-4.904 4.188-8.877V5.672c0-1.19-.79-2.236-1.934-2.564l-8-2.285ZM3 5.673l8-2.286 8 2.285v8.995c0 2.977-1.497 5.241-3.321 6.91-1.78 1.628-3.779 2.6-4.679 2.986-.9-.386-2.9-1.358-4.679-2.986C4.497 19.908 3 17.644 3 14.667V5.672Z" clip-rule="evenodd"/></svg>