<svg xmlns="http://www.w3.org/2000/svg" width="26" height="24" fill="none"><path fill="#fff" fill-rule="evenodd" d="M12 2.667a4 4 0 1 0 0 8 4 4 0 0 0 0-8Zm-6.667 4a6.667 6.667 0 1 1 13.334 0 6.667 6.667 0 0 1-13.334 0Z" clip-rule="evenodd"/><path fill="#fff" fill-rule="evenodd" d="m2.653 21.525.001-.01.01-.055c.009-.053.025-.138.048-.248.048-.222.127-.548.25-.943.245-.794.658-1.843 1.326-2.881 1.309-2.036 3.59-4.055 7.712-4.055 2.5 0 4.29.74 5.593 1.729l1.612-2.124c-1.773-1.346-4.13-2.271-7.205-2.271-5.212 0-8.263 2.647-9.955 5.279a14.551 14.551 0 0 0-2.008 5.051 6.035 6.035 0 0 0-.016.1l-.005.03-.002.011v.005c0 .001 0 .002 1.32.19l-1.32-.188a1.333 1.333 0 0 0 2.639.38Z" clip-rule="evenodd"/><path fill="#fff" d="M24.98 15.097a1.333 1.333 0 0 1-.077 1.884l-6.786 6.25a2 2 0 0 1-2.71 0L12.43 20.49a1.333 1.333 0 0 1 1.806-1.961l2.526 2.326 6.335-5.835a1.333 1.333 0 0 1 1.884.078Z"/></svg>