<svg xmlns="http://www.w3.org/2000/svg" width="32" height="32" fill="none"><path fill="#777" fill-rule="evenodd" d="M0 16C0 7.165 7.165 0 16 0s16 7.165 16 16-7.165 16-16 16S0 24.835 0 16Zm25.586 4.826c.412-1.565.412-4.81.412-4.81s.016-3.26-.412-4.825a2.506 2.506 0 0 0-1.762-1.763C22.258 9 16 9 16 9s-6.259 0-7.823.412c-.84.23-1.532.922-1.763 1.779C6.002 12.755 6.002 16 6.002 16s0 3.261.412 4.81c.23.856.906 1.531 1.763 1.762C9.757 23 16 23 16 23s6.259 0 7.823-.412a2.505 2.505 0 0 0 1.763-1.762ZM19.212 16l-5.205 2.997v-5.995l5.205 2.998Z" clip-rule="evenodd"/></svg>